<svg width="218" height="46" viewBox="0 0 218 46" fill="none" xmlns="http://www.w3.org/2000/svg">
<g clip-path="url(#clip0_164_129)">
<path fill-rule="evenodd" clip-rule="evenodd" d="M29.38 35.9001C30.0513 35.4486 23.1446 38.7979 23.1446 38.7979C23.0818 38.7825 16.3404 36.0617 16.5507 35.8843C21.1847 31.9643 20.393 26.0597 20.1872 26.0974L21.0434 25.731C21.3873 26.1157 22.5505 26.632 23.2695 26.5784C23.7828 26.5406 24.5744 26.2372 24.5744 26.2372C25.3449 26.1157 25.6674 26.3865 25.65 26.7028C25.2844 33.0166 29.38 35.9001 29.38 35.9001Z" fill="#B18F47"/>
<path fill-rule="evenodd" clip-rule="evenodd" d="M17.7504 21.0852C17.8046 21.1286 18.2812 20.9232 19.2453 20.5567C20.2092 20.1895 20.6313 19.9621 20.6313 19.9621C20.9131 18.8823 19.9202 17.5745 19.3967 17.5745C19.3967 17.5745 18.9306 17.802 18.8764 17.9854C18.8227 18.1688 19.5705 18.4934 19.3638 19.692L19.0818 19.8109C18.7254 19.4432 19.1963 18.6305 18.2076 18.1483C17.74 17.92 17.48 18.7849 17.48 18.7849C18.5167 19.9842 17.5536 20.9256 17.7504 21.0852ZM17.153 21.4353C17.1654 21.3266 17.0425 21.1723 17.0647 20.9315C17.9628 20.4011 17.4583 19.1517 17.0792 18.9357C17.0141 18.9465 16.6788 19.1415 16.6026 19.0871C16.4402 18.709 16.8034 18.6437 17.101 18.4281C17.3825 18.2012 17.22 18.1259 17.553 17.9133C17.9873 17.7974 18.3575 17.8342 18.5536 17.7513C18.812 17.6832 19.1155 17.4883 19.2125 17.2184C19.2125 17.2184 19.6129 16.6029 19.2673 15.5444C19.6347 15.3393 19.7707 15.5384 19.7707 15.5384C19.7707 15.5384 19.8622 16.1491 19.8195 16.3544C19.7756 16.5596 19.7173 17.1849 19.7173 17.1849C19.7173 17.1849 20.4037 17.8988 20.6096 17.8988C21.0538 17.8988 21.1405 16.8645 21.475 16.7534C21.605 16.71 21.6652 16.7986 21.6925 16.8612C21.8116 17.143 20.8368 18.3417 20.9022 18.4605C21.1062 18.8302 21.0437 19.8061 21.1842 19.7785C21.2912 19.7569 21.7795 19.7028 21.7999 19.6134C21.9718 18.8721 22.5157 18.3415 22.5816 17.8341C22.6761 17.0897 22.3287 16.5127 22.2561 16.419C22.2228 16.3755 22.0294 16.1169 21.4002 16.0301C21.222 16.0056 20.7618 15.501 20.8258 15.1068C20.8401 15.0245 21.2591 15.1068 21.2591 15.1068C21.2492 15.2199 21.3961 15.6892 21.596 15.717C22.2887 15.814 22.278 15.8468 22.4227 15.9708C22.7299 16.2344 22.9319 17.6055 23.178 17.337C23.8487 16.6029 24.7719 16.9816 24.7365 16.8725C24.6849 16.7139 24.8257 15.5814 24.406 14.8764C23.8535 14.0125 22.8693 14.1964 22.8693 14.1964C22.8693 14.5306 23.5292 15.1374 23.1128 15.5927C23.0758 15.6332 22.9706 15.7042 22.8693 15.4006C22.804 15.2068 22.6407 14.8616 22.4937 14.6358C22.194 14.1766 21.7845 13.802 21.4183 13.7209C21.0385 13.6371 20.1177 13.0538 18.4159 13.9229C17.1469 14.571 17.5813 15.9763 17.0458 16.4124C16.7316 16.6675 16.3245 16.5358 16.0717 16.7967C15.769 17.1082 15.6379 17.4322 15.473 17.7275C15.3408 17.9655 14.4751 18.1073 14.1741 18.6687C13.8842 19.2101 13.8126 19.8766 13.8396 20.1357C13.8599 20.3279 13.7787 20.9253 14.9247 20.8036C15.1324 20.7812 15.8167 20.4395 15.9532 20.3334C16.1417 20.1864 16.267 19.9917 16.3457 20.0448C16.5081 20.1561 16.5142 20.3872 16.4675 20.4494C16.3472 20.609 15.815 21.0945 15.2394 21.1676C14.6883 21.2385 13.9209 21.0969 13.8599 21.2691C13.8244 21.3692 13.3441 21.8308 13.1906 22.3518C13.0362 22.8728 13.1254 23.424 13.1296 23.5254C13.1395 23.7987 13.3081 24.2836 13.7078 24.5475C13.9499 24.7069 14.182 24.734 14.2905 24.7635C14.3841 24.0124 15.7341 22.0419 17.153 21.4353ZM20.5019 22.1651C20.3613 22.0932 20.5605 21.8794 20.6207 21.8851C21.5081 21.9711 21.5448 22.393 21.79 22.457C22.0392 22.5218 22.0004 22.2321 22.1364 21.9819C22.2427 21.7883 22.4295 21.7978 22.3954 21.5556C22.343 21.1712 21.7257 20.8475 21.7738 20.5572C21.7953 20.4243 22.1129 20.348 22.1523 20.3958C22.5157 20.8475 22.7005 21.1066 22.7005 21.1066C22.8064 21.1061 23.3354 20.7016 23.9569 20.4483C24.5858 20.1916 25.2716 20.1967 25.2563 20.1561C25.2338 20.0955 25.6281 18.8347 25.3661 18.9032C24.6897 19.0794 23.474 19.5417 22.3863 19.9077C21.5323 20.1952 20.766 20.4 20.3606 20.5236C20.0208 20.6273 16.7162 21.833 15.9952 22.7385C14.5336 24.5743 14.8041 24.9521 14.7181 25.2977C14.7153 25.3083 14.7096 25.3176 14.7014 25.326C14.9283 25.6955 15.2645 27.1444 17.0658 26.6229C18.3241 26.2583 17.8371 23.9923 18.4865 24.5589C18.7629 24.8003 18.1615 25.8134 18.5674 25.9349C19.5562 26.2314 20.4709 25.6037 20.7957 25.3486C20.9095 24.557 21.4983 23.9677 21.7193 23.7145C21.8096 23.6107 22.016 22.9475 20.5019 22.1651ZM33.9895 20.7342C34.02 20.6784 34.7601 20.7492 34.7601 20.6833C34.7601 20.3623 35.1009 19.932 35.0447 19.2676C34.9788 18.4956 34.4285 18.0835 34.3369 17.9023C34.3294 17.8853 32.6287 17.9565 32.5567 16.3072C32.5567 16.3072 32.923 16.0871 32.9201 16.1627C32.8837 17.3039 34.4648 17.4386 34.4762 17.4155C34.7003 16.969 34.7104 16.1105 34.4156 15.5235C34.138 14.9703 33.2182 14.2687 33.0964 14.1374C33.0724 14.1115 33.0583 14.071 33.0529 14.0251C32.8344 13.8126 32.2789 13.3628 31.4531 13.3161C30.7584 13.2771 30.3194 13.6693 29.9891 13.7974C29.9137 14.8258 29.6243 15.7285 29.5028 15.9434C28.7382 17.303 30.809 16.9635 30.9188 16.8612C31.5086 16.3111 31.4177 15.8768 31.5933 14.6687C31.6205 14.4757 31.9202 14.5946 31.9202 14.5946C31.9202 14.5946 32.1147 15.0704 32.0262 15.3387C32.0148 15.3706 32.6437 15.2953 33.0012 15.5393C33.0731 15.5873 32.9344 15.838 32.9746 15.9165C32.9821 15.9315 32.1457 15.6087 31.9286 15.7811C31.8688 15.829 31.9604 16.8667 31.2135 17.2927C31.1421 17.3331 31.0498 17.3763 31.2034 18.1022C31.2217 18.1889 31.2283 18.2577 31.2267 18.3126C31.2427 18.3168 31.2575 18.3201 31.2738 18.3248C32.2176 18.5979 32.8467 19.3263 32.8467 19.3263C33.1192 19.6703 33.8769 18.9445 34.0092 19.6025C34.029 19.6925 33.0284 19.6894 33.0472 19.8382C33.3379 22.2296 32.1752 22.7189 31.339 22.683C31.2784 22.6803 31.5282 23.8625 31.3027 24.0421C30.6668 24.5501 31.2671 22.9008 30.4125 22.1937C30.1809 22.0026 29.4785 21.9065 28.9402 22.291C28.6982 22.4642 28.0645 22.7407 27.777 23.0271C27.7663 23.0373 27.9434 23.5673 27.9943 23.7884C28.0493 24.024 28.0086 24.5184 27.9223 24.6044C27.3773 25.148 27.6498 23.2086 27.2138 23.1724C26.9459 23.1506 26.7226 23.3642 26.5122 23.3642C26.3146 23.3642 25.8689 23.3357 25.6327 23.4442C25.0066 23.7329 24.464 24.1956 24.124 24.2052C24.1129 24.2052 23.8056 23.8708 23.9955 23.7884C24.0605 23.7606 24.9416 23.5712 25.2495 23.1001C25.4094 22.8593 26.0317 22.5575 26.0317 21.3239C26.0317 21.1604 26.3957 21.0515 26.4682 21.1963C26.7194 21.7003 25.9733 22.8668 26.1223 22.8825C26.8141 22.955 27.9572 22.374 28.0684 22.3209C28.9206 21.9166 28.8086 21.6031 28.7207 20.8164C28.7193 20.7871 28.8668 20.7435 29.031 20.7618C29.1885 20.7796 29.0676 21.4867 29.2483 21.632C29.3898 21.7446 30.0545 21.5074 30.5132 21.6838C30.9091 21.8359 31.083 22.3998 31.8475 22.2667C32.1919 22.2065 33.6853 20.4203 31.7566 18.9134C31.604 18.7947 30.1045 18.3695 29.5586 19.1847C29.5586 19.1847 31.6842 19.6747 31.6295 21.2514C31.6258 21.3886 31.3223 21.4615 31.2845 21.324C31.121 20.7435 30.8378 20.374 30.5207 20.0731C30.1756 19.747 29.3733 19.5902 29.1575 19.5838C28.6185 19.5684 28.3582 19.5115 27.87 19.7015C27.7997 19.7179 27.2138 19.9286 27.2138 19.9286C26.9958 19.9286 26.9156 20.0955 26.8868 20.1277C26.8225 20.1967 26.7567 20.2448 26.6912 20.2761C26.6974 20.2798 26.7031 20.2836 26.7051 20.2876C26.7453 20.3689 27.1276 20.5442 27.2283 20.6203C27.4008 20.7499 27.4076 21.1357 27.2501 21.1494C27.1193 21.161 26.5016 20.1238 24.2065 20.8151C23.5248 21.0197 22.6155 21.6858 22.4818 22.2537C22.2992 23.0185 22.2168 23.5759 22.2349 23.5801C22.3825 23.6188 22.7708 23.642 22.72 23.7145C22.6845 23.765 22.6838 24.2353 22.5845 24.1727C21.5734 23.5379 21.4446 25.1275 21.3677 25.3336C21.3611 25.3513 21.354 25.365 21.3472 25.3808C21.9087 25.6754 22.0988 26.3116 22.8693 26.2991C23.5186 26.2892 23.8131 26.2486 24.635 25.9446C24.7592 25.8991 25.0611 24.498 25.4169 24.7713C25.7612 25.0371 24.9894 25.5832 25.1323 25.844C25.2534 26.0665 26.7945 26.2206 27.1002 26.1981C27.6498 26.1576 27.4703 26.232 28.0139 26.0866C28.8457 25.8643 29.648 24.9736 29.6875 24.8625C29.7487 24.6905 28.8707 23.1056 29.069 23.0412C29.1478 23.0163 29.2599 23.0245 29.343 23.0207C29.7994 23.0004 29.5452 23.8203 30.1642 24.6799C30.3952 25.0014 31.2814 25.0151 31.6454 24.9635C32.0005 24.9132 32.2622 24.7761 32.5894 24.6799C33.0049 24.5589 33.3198 24.387 33.4416 24.0834C33.4682 24.0165 33.0254 23.2828 33.0661 23.1219C33.0768 23.082 33.2131 22.9652 33.3401 22.9702C33.5838 22.9804 33.5772 23.1801 33.5748 23.3371C33.5734 23.4054 33.8282 23.81 33.8677 23.7895C33.9282 23.7568 34.4461 23.6889 34.9327 22.2012C35.0159 21.9479 34.7911 21.4016 34.639 21.169C34.5391 21.016 33.6344 21.3813 33.9895 20.7342ZM12.9369 24.497C12.9369 24.497 12.5611 24.8713 12.2466 24.7496C12.1671 24.7185 12.1752 24.6261 12.135 24.5475C12.1278 24.532 12.7595 24.025 12.7546 24.0111C12.4699 23.3532 12.8877 22.3858 12.663 22.291C12.062 22.0381 11.2929 22.3518 11.1507 22.5033C10.9402 22.7286 10.7518 22.7867 10.7048 22.7769C10.563 22.7464 10.4604 22.5485 10.522 22.4936C11.699 21.4411 12.9562 21.8998 12.9878 21.8359C13.1698 21.4615 13.4906 21.162 13.6776 20.9756C13.7181 20.9351 13.5553 20.6923 13.4948 20.581C13.4788 20.5528 11.537 21.2589 10.8565 20.7629C10.7226 20.665 10.7892 20.4908 10.7859 20.4696C10.776 20.4051 11.7907 20.9093 13.4335 20.1357C13.5172 20.0966 13.4952 19.2917 13.4392 19.1782C13.2419 18.7837 12.4495 18.4865 12.4905 18.2844C12.503 18.2173 12.5525 17.9422 12.6221 17.9303C12.8547 17.8897 13.6576 18.7912 13.7078 18.7192C13.7391 18.6746 13.748 18.524 13.7968 18.4243C13.6033 18.268 12.6571 16.8767 12.4602 17.092C12.1082 17.4763 12.0112 17.3258 11.699 18.0531C11.6684 18.1241 11.486 18.3666 11.537 18.6398C11.559 18.7604 12.0738 18.9725 12.3485 19.4694C12.4692 19.6894 12.1247 19.874 12.0435 19.7324C11.8671 19.4253 11.5037 19.1676 11.3645 19.1457C11.0898 19.103 10.471 19.1255 10.2684 19.2676C9.36099 19.9008 9.24777 20.241 9.12226 20.7137C8.96019 21.3207 9.49679 21.6648 9.39658 22.0595C9.27622 22.5251 9.0101 22.6261 9.06132 23.1521C9.08206 23.3688 9.21786 23.8995 9.63109 24.0134C10.8775 24.3561 11.4568 23.1047 11.719 23.476C11.8535 23.6669 11.6014 23.8078 11.3738 23.9521C11.1542 24.0918 11.1608 24.2048 10.8464 24.2353C10.6242 24.2565 10.4062 24.3678 10.3699 24.4573C10.3147 24.5916 10.3829 24.8698 10.4101 24.9229C10.8059 25.6817 11.0694 25.1562 11.5461 25.3683C11.7126 25.443 11.4654 25.9858 12.7439 25.9752C13.2012 25.9716 13.5462 25.7336 13.8385 25.5233C13.849 25.4608 13.8582 25.3413 13.8093 25.2152C13.7377 25.0327 12.9369 24.497 12.9369 24.497ZM14.1523 18.0802C14.1598 18.0749 14.1646 18.0716 14.1646 18.0716C14.3229 17.9261 14.8243 17.6267 14.8012 17.567C14.6454 17.1408 14.3377 16.8976 14.2967 16.8068C14.2386 16.6822 14.4068 16.4571 14.4989 16.4324C14.6518 16.3921 15.2394 17.404 15.3715 17.1917C15.4677 17.0361 15.4124 16.7845 15.889 16.4124C16.2008 16.1685 16.7358 16.3513 16.8225 15.9368C16.9169 15.4906 17.1063 15.0567 17.0964 14.9553C16.9702 13.7001 16.6098 13.8221 16.5991 13.7616C16.5402 13.4084 16.7445 13.3994 16.7718 13.2654C16.8083 13.0822 17.3396 14.0346 17.3702 14.1157C17.4394 14.2992 17.6904 14.0353 17.8163 13.9229C18.7737 13.0714 19.4152 13.0857 19.9274 13.0732C19.9613 13.0725 19.9958 13.0678 20.0305 13.0607C20.052 13.0156 20.1588 12.9497 20.2347 12.8236C20.3243 12.6743 20.3557 12.4241 20.434 12.4067C20.5023 12.3914 21.2334 11.99 21.2334 11.99C21.2334 11.6394 21.667 10.993 21.9065 11.0291C22.5067 11.1197 21.5433 11.6999 21.7977 11.7726C21.8298 11.7816 22.1113 11.8531 22.5414 11.8339C22.4964 11.4939 23.0795 10.8878 22.991 10.8284C22.2652 10.3461 21.4965 10.4094 21.1037 10.5353C20.5684 10.7072 20.3738 11.0611 20.2313 11.1928C20.0881 11.3255 20.3228 12.3566 19.9775 12.3566C19.5818 12.3566 19.7956 11.3039 19.6424 11.2635C19.1053 11.1222 18.5777 11.4357 18.3241 11.7392C18.113 11.9907 18.2123 12.2958 17.7356 12.6397C17.5915 12.7436 16.9243 12.5387 16.4675 12.8222C15.3847 13.4936 15.6361 13.8313 15.5845 13.9449C15.4456 14.2509 16.3347 14.659 16.1629 14.8657C16.0939 14.9482 16.0466 15.0624 15.9497 15.0781C15.889 15.0883 15.4706 14.6863 15.4121 14.7648C15.2735 14.9498 14.643 15.28 14.2758 15.3516C14.1396 15.3784 13.8143 15.5569 13.7302 15.6112C13.3256 15.8762 12.9502 16.3279 12.9878 16.6873C13.0353 17.1562 14.0356 17.9686 14.1523 18.0802ZM23.4519 12.4792C23.8017 12.4549 23.9434 12.1712 24.1067 12.1168C24.3709 12.0971 24.7758 12.4013 24.9967 12.3888C25.2382 12.3751 25.8144 11.7184 25.9414 11.6275C26.4312 11.3531 25.5964 10.9568 26.1596 10.9749C26.6894 11.0225 26.8505 11.627 26.7961 11.7541C26.7673 11.8202 26.3055 11.8268 26.2502 11.9357C26.0898 12.2561 25.1429 12.9867 24.9242 12.9688C24.7062 12.9505 24.4163 12.5518 24.2332 12.5154C24.0515 12.4792 23.5065 12.9594 23.325 12.9819C23.1424 13.0052 22.8517 12.2257 21.9975 12.2257C21.3734 12.2257 20.7159 12.5224 20.657 12.9792C20.6603 12.9836 20.6641 12.9871 20.6673 12.9922C20.8102 13.2248 21.2038 13.1498 21.3677 13.1545C21.7428 13.1642 22.0268 13.5493 22.4227 13.7817C22.4491 13.7969 23.2855 13.4376 24.6049 14.3078C24.8024 14.4387 25.0817 13.8325 25.5887 13.4676C25.9944 13.1342 26.1572 13.1891 26.4334 13.0176C26.8582 12.7541 27.3046 12.5577 27.7196 12.5588C28.384 12.5981 28.9578 12.4765 29.8093 13.3869C30.022 13.2048 30.8342 12.9819 31.2496 12.8903C31.3109 12.3954 30.6213 11.8897 30.7228 11.6062C30.8856 11.5354 30.9197 11.5508 31.027 11.5656C31.2845 11.6021 31.6856 12.4863 31.8491 12.9117C31.8491 12.9117 32.1352 13.0156 31.9407 12.9922C32.3527 13.0123 33.4605 13.6739 33.4792 13.685C33.3863 12.0222 32.2189 11.8926 32.1638 11.7091C31.9414 10.9727 31.6856 10.4745 31.3216 10.4542C30.8613 10.4288 30.4391 10.4542 29.8803 10.4542C29.7456 10.4542 30.3171 11.5673 29.8198 11.5876C29.6518 11.5942 29.2008 10.4242 29.2008 10.4242C29.0175 10.414 28.1047 10.3025 28.1047 10.4037C28.1047 10.5962 28.496 11.6474 28.3281 11.7799C28.2024 11.8787 28.0631 11.7179 27.9834 11.7292C27.8148 11.753 28.166 9.51299 25.3857 9.88743C24.8137 9.96467 24.321 10.1812 23.8237 10.9297C23.7511 11.0382 23.4582 10.92 23.4277 10.9603C23.2055 11.2549 23.0025 11.5609 22.9912 12.0114C23.1556 12.2115 23.3575 12.4909 23.4519 12.4792ZM24.2898 17.2319C23.0925 17.2319 22.0478 19.5153 22.5036 19.4378C23.3361 19.2959 25.0061 18.6598 25.4261 18.3452C25.5889 18.2233 25.18 17.2319 24.2898 17.2319ZM33.4818 13.7123C33.4814 13.7037 33.4799 13.6966 33.4794 13.688L33.4498 13.7292C33.4697 13.728 33.4825 13.7233 33.4818 13.7123ZM30.6949 17.2929C30.5541 17.3472 30.2558 17.4607 29.6979 17.3472C29.4278 17.2927 29.032 16.9084 28.9947 16.8992C28.851 16.8645 28.7784 17.1007 28.4536 17.3838C28.2243 17.5843 27.5309 18.0818 27.5808 18.1426C27.8711 18.4885 27.9931 18.9936 28.0398 19.2284C28.0849 19.2516 28.4466 19.3905 29.685 18.6413C29.919 18.5002 30.2424 18.2971 30.7215 18.2656C30.6864 17.9347 30.8496 17.2334 30.6949 17.2929ZM29.4581 13.7231C29.2428 13.4017 28.7039 12.9801 28.3893 12.9722C27.4122 12.9472 26.5833 12.9922 24.8893 14.6821C24.8813 14.6901 24.8716 14.6995 24.8627 14.7082C24.8644 14.7095 24.8664 14.7108 24.8682 14.7124C24.8682 14.7124 25.0112 15.4143 25.2641 15.5658C26.2829 16.1797 26.562 16.5727 26.5348 16.7435C26.5235 16.8083 26.1988 16.8513 26.1988 16.8513C25.9535 16.4022 25.1914 15.8784 25.1868 15.947C25.1551 16.4653 25.1255 17.0091 25.2785 17.0998C26.13 17.6062 25.8135 18.2114 25.9944 18.237C26.568 18.3198 28.8162 16.9291 28.3666 16.624C28.0146 16.3863 26.4699 15.3493 26.8163 14.0318C26.8868 13.7674 27.1804 13.8292 27.1843 14.0011C27.2177 15.5979 28.6745 16.2001 28.7556 16.2137C29.0775 16.2668 29.4948 14.4224 29.4581 13.7231ZM27.2138 19.5662C27.2905 19.5441 27.3856 19.4978 27.4852 19.4465C27.4925 19.4368 27.4973 19.4286 27.5066 19.4174C27.5066 19.4174 27.7806 19.0976 27.1312 18.3088C27.1155 18.2905 26.943 18.3381 26.4699 18.5465C26.2754 18.6325 25.9171 18.7308 25.9195 18.7398C25.9302 18.8042 25.7061 19.4947 25.7114 20.0909C25.7123 20.1379 25.9645 20.1674 26.2146 20.1956C26.8474 20.0062 25.9298 19.9749 27.2138 19.5662Z" fill="#008270"/>
<path fill-rule="evenodd" clip-rule="evenodd" d="M7.37952 39.081L8.23521 38.1789L8.07003 38.0235C8.01794 37.9736 7.94889 37.9208 7.8548 37.9009C7.68943 37.8641 7.55732 37.9509 7.39273 38.0451L7.12957 38.1967C7.01873 38.2605 6.88589 38.3284 6.75082 38.3381C6.63575 38.348 6.57117 38.3173 6.51427 38.2644L6.10177 37.8747C6.19149 37.8854 6.24344 37.8709 6.31079 37.8535C6.4027 37.8286 6.55593 37.7796 6.81209 37.6279L7.04038 37.4935C7.16555 37.4196 7.32757 37.335 7.50207 37.3435C7.60155 37.3503 7.67642 37.3834 7.73259 37.4235L7.74502 37.4106C7.68851 37.3382 7.64743 37.2558 7.62889 37.1762C7.57125 36.9339 7.67642 36.6903 7.8043 36.4308C7.90893 36.2224 7.99113 36.0692 8.06634 35.8721C8.11591 35.7392 8.13975 35.6419 8.13975 35.5174L8.6279 35.978C8.66422 36.0194 8.71194 36.1076 8.65669 36.2978C8.62678 36.395 8.5391 36.5741 8.47394 36.7009L8.33959 36.961C8.24875 37.1369 8.22822 37.2113 8.22346 37.2558C8.20141 37.4106 8.2976 37.5139 8.3998 37.6105L8.5976 37.7973L9.52301 36.8233L10.0504 37.3215L7.90782 39.58L7.37952 39.081Z" fill="#008270"/>
<path fill-rule="evenodd" clip-rule="evenodd" d="M3.35232 34.2991L5.90761 32.5182L6.32399 33.1123L4.23755 34.567L4.65758 35.1649L4.84219 35.0413C4.90549 34.9969 5.53036 34.5837 6.017 34.3663C6.23208 34.2714 6.56807 34.1488 6.85875 34.2001C7.09913 34.2427 7.25071 34.3796 7.35219 34.5249C7.40448 34.5994 7.4355 34.6658 7.45623 34.729L6.99047 35.0538C6.97858 35.0289 6.96993 35.0077 6.95362 34.9852C6.87909 34.877 6.72295 34.7813 6.42765 34.8659C6.20436 34.927 5.86911 35.1157 5.73515 35.1931C5.54211 35.3049 5.33236 35.4403 4.71025 35.8574L4.52785 35.978L3.35232 34.2991Z" fill="#008270"/>
<path fill-rule="evenodd" clip-rule="evenodd" d="M2.01265 31.7416L3.50142 31.1085C3.69814 31.0247 3.82605 30.99 3.86587 30.9781C3.74476 30.9953 3.6108 30.983 3.5585 30.9753L1.81006 30.6999L1.60453 30.7866L1.31918 30.1201L4.18829 28.9L4.47253 29.5667L2.98027 30.2025C2.77897 30.2868 2.65327 30.3262 2.59876 30.3399C2.69382 30.3286 2.83787 30.3311 2.90724 30.3414L4.65108 30.6199L4.88155 30.5222L5.16694 31.1891L2.29818 32.4086L2.01265 31.7416Z" fill="#008270"/>
<path fill-rule="evenodd" clip-rule="evenodd" d="M3.2558 25.0028L3.39673 25.7156L2.09935 25.9698L2.29533 26.9701L3.59455 26.7158L3.73383 27.428L0.674795 28.0276L0.534416 27.316L1.7338 27.08L1.53654 26.0792L0.336782 26.3148L0.19677 25.6029L3.2558 25.0028Z" fill="#008270"/>
<path fill-rule="evenodd" clip-rule="evenodd" d="M0.00990997 22.7075L1.62732 22.7293C1.84111 22.7317 1.97249 22.7513 2.01323 22.7573C1.89634 22.7238 1.77798 22.6585 1.73321 22.6306L0.245536 21.6728L0.0231263 21.6699L0.0332155 20.9442L3.15059 20.9849L3.1407 21.7099L1.51832 21.6894C1.30032 21.6863 1.16856 21.6713 1.11406 21.6618C1.20489 21.6902 1.33518 21.7502 1.39464 21.7879L2.87736 22.7449L3.12748 22.7489L3.11775 23.4736L0 23.4328L0.00990997 22.7075Z" fill="#008270"/>
<path fill-rule="evenodd" clip-rule="evenodd" d="M0.424613 18.1627L1.26782 18.3468C1.37481 18.3695 1.50326 18.3983 1.61978 18.3349C1.75631 18.2632 1.78439 18.1115 1.82219 17.9389C1.85063 17.8102 1.87558 17.6761 1.88623 17.5022L0.629221 17.2288L0.784098 16.5197L3.83028 17.1832L3.67596 17.8921L2.4228 17.6194C2.40078 17.8278 2.3705 18.0297 2.32866 18.2207C2.26756 18.4989 2.19801 18.7721 1.97853 18.9469C1.81008 19.082 1.57629 19.1286 1.16304 19.0384L0.275238 18.8444L0.424613 18.1627Z" fill="#008270"/>
<path fill-rule="evenodd" clip-rule="evenodd" d="M2.32265 12.4927L2.84784 12.7187L2.26576 14.0633L2.88344 14.3296L3.34899 13.2558L3.83289 13.4643L3.36789 14.538L4.07622 14.8435L4.66546 13.4832L5.19122 13.709L4.31405 15.7354L1.451 14.5029L2.32265 12.4927Z" fill="#008270"/>
<path fill-rule="evenodd" clip-rule="evenodd" d="M5.23885 9.93256C5.13208 9.87073 5.00269 9.82076 4.87223 9.80885C4.65606 9.78764 4.51182 9.85369 4.39107 10.0301C4.25491 10.2276 4.2595 10.4229 4.39841 10.6549C4.50191 10.8244 4.659 10.9642 4.90325 11.1304C5.1616 11.3071 5.36144 11.41 5.54953 11.4399C5.87474 11.4958 6.05108 11.3528 6.1377 11.2254C6.22208 11.102 6.27053 10.942 6.19751 10.7439C6.14517 10.604 6.02792 10.4696 5.93397 10.3896L6.36322 9.87475C6.63147 10.1013 6.76106 10.3866 6.8016 10.6176C6.84306 10.8542 6.82913 11.1798 6.58763 11.5315C6.21329 12.0785 5.69451 12.153 5.3864 12.1292C5.07722 12.106 4.72872 11.9561 4.46906 11.7799C4.03085 11.4805 3.77193 11.0789 3.70238 10.7133C3.61613 10.2541 3.80716 9.91755 3.94002 9.72285C4.07655 9.52467 4.32758 9.25598 4.71478 9.17967C4.79075 9.16524 5.16437 9.10171 5.57871 9.34057L5.23885 9.93256Z" fill="#008270"/>
<path fill-rule="evenodd" clip-rule="evenodd" d="M6.48475 6.71987L7.35529 7.60951L7.51711 7.45098C7.56941 7.40029 7.62466 7.33371 7.64889 7.24074C7.69273 7.07804 7.61145 6.94261 7.52318 6.77498L7.3817 6.50648C7.32223 6.39337 7.25984 6.25832 7.25415 6.12347C7.25013 6.00779 7.2828 5.94485 7.3382 5.89028L7.74502 5.49535C7.73089 5.58469 7.74337 5.63645 7.75827 5.704C7.77954 5.79697 7.82265 5.95124 7.9638 6.21242L8.08964 6.44537C8.15868 6.57422 8.237 6.73871 8.2218 6.91186C8.21039 7.01088 8.17446 7.08424 8.13208 7.13823L8.1447 7.15126C8.21957 7.09799 8.30269 7.06047 8.38494 7.04526C8.62862 6.99713 8.86901 7.11208 9.12371 7.25042C9.32797 7.36189 9.47824 7.45045 9.67294 7.53315C9.80412 7.58956 9.89992 7.61663 10.0251 7.62084L9.5434 8.08932C9.50135 8.12394 9.4109 8.16713 9.22208 8.1038C9.12628 8.07068 8.95028 7.97587 8.82589 7.90672L8.57119 7.76228C8.39829 7.66457 8.32435 7.64079 8.27978 7.63368C8.12616 7.60637 8.019 7.69808 7.91753 7.79526L7.7223 7.98574L8.66091 8.94656L8.14048 9.45256L5.96451 7.22592L6.48475 6.71987Z" fill="#008270"/>
<path fill-rule="evenodd" clip-rule="evenodd" d="M9.95848 3.84388L10.8305 5.20289C10.9463 5.38224 11.0019 5.50266 11.0205 5.53946C10.9838 5.42287 10.9729 5.28966 10.9709 5.2364L10.9549 3.47071L10.8355 3.28368L11.4478 2.89297L13.1289 5.51201L12.5162 5.90291L11.6416 4.53949C11.5245 4.35685 11.4643 4.23863 11.4429 4.18793C11.4682 4.27889 11.4902 4.42108 11.4913 4.49025L11.5049 6.25266L11.6399 6.46256L11.0273 6.85347L9.34633 4.23442L9.95848 3.84388Z" fill="#008270"/>
<path fill-rule="evenodd" clip-rule="evenodd" d="M15.0529 0.303223C15.1232 0.528506 15.0472 0.712443 14.9892 0.802119C14.8564 1.0166 14.5764 1.1372 14.458 1.18204C14.3387 1.22633 14.0488 1.32131 13.8075 1.24756C13.7041 1.21846 13.5247 1.1308 13.4286 0.915032L13.9521 0.717924C13.9757 0.781792 14.0224 0.841282 14.0798 0.863972C14.1442 0.892521 14.2332 0.88319 14.3307 0.846405C14.4284 0.809803 14.5004 0.758186 14.5294 0.694314C14.5578 0.63941 14.5541 0.564202 14.5294 0.500335L15.0529 0.303223ZM14.0836 1.65676L14.6555 3.16677C14.7305 3.36589 14.7606 3.4949 14.7709 3.53479C14.7584 3.41364 14.7766 3.2806 14.7855 3.22881L15.136 1.49809L15.0573 1.29L15.7379 1.03417L16.8399 3.94292L16.1591 4.19931L15.5959 2.71474C15.5139 2.49458 15.4823 2.37525 15.4634 2.29948C15.4712 2.39392 15.4623 2.53832 15.4491 2.6064L15.0968 4.33272L15.1852 4.56568L14.5052 4.82263L13.4032 1.91316L14.0836 1.65676Z" fill="#008270"/>
<path fill-rule="evenodd" clip-rule="evenodd" d="M20.8234 0.0898603L20.9063 1.70143C20.9166 1.91408 20.9056 2.04622 20.9029 2.08721C20.9283 1.96789 20.9865 1.8471 21.0111 1.79988L21.8739 0.258947L21.8626 0.0366018L22.5891 0L22.7487 3.10529L22.0224 3.14189L21.9393 1.5261C21.9285 1.30887 21.9354 1.17711 21.9418 1.12202C21.9184 1.21352 21.866 1.34858 21.8336 1.40897L20.9696 2.94644L20.9825 3.19515L20.2565 3.23266L20.0971 0.126998L20.8234 0.0898603Z" fill="#008270"/>
<path fill-rule="evenodd" clip-rule="evenodd" d="M26.7293 3.56296L26.011 3.45168L26.214 2.14775L25.2027 1.99165L24.9997 3.29559L24.2808 3.18395L24.7592 0.11124L25.479 0.222315L25.2904 1.42724L26.3008 1.58335L26.4878 0.378247L27.207 0.489517L26.7293 3.56296Z" fill="#008270"/>
<path fill-rule="evenodd" clip-rule="evenodd" d="M30.6085 2.74884C30.6433 2.63135 30.6615 2.49262 30.6411 2.3636C30.6092 2.14948 30.5108 2.02522 30.3112 1.95056C30.084 1.86619 29.897 1.91688 29.7047 2.10703C29.564 2.24795 29.4656 2.43425 29.3619 2.71022C29.2515 3.00285 29.199 3.22045 29.2157 3.41005C29.2393 3.73855 29.4203 3.87416 29.564 3.92796C29.7056 3.98012 29.8728 3.98946 30.0477 3.87069C30.1717 3.78613 30.2749 3.64064 30.3308 3.53083L30.934 3.82309C30.7765 4.13768 30.5312 4.33114 30.3156 4.42502C30.0947 4.5222 29.7752 4.58662 29.3746 4.43728C28.7527 4.20577 28.5558 3.72079 28.5059 3.41645C28.4536 3.11211 28.5156 2.73841 28.6253 2.44559C28.8123 1.94909 29.1408 1.60247 29.4814 1.44764C29.9067 1.25365 30.28 1.35816 30.5017 1.44142C30.7283 1.52597 31.0483 1.70293 31.2155 2.06017C31.248 2.13081 31.3994 2.47707 31.2671 2.93623L30.6085 2.74884Z" fill="#008270"/>
<path fill-rule="evenodd" clip-rule="evenodd" d="M34.9621 3.7453L34.6692 4.23687L34.038 3.86023L32.734 6.04154L32.1088 5.66981L33.412 3.48946L32.7801 3.11392L33.0722 2.62273L34.9621 3.7453Z" fill="#008270"/>
<path fill-rule="evenodd" clip-rule="evenodd" d="M36.962 5.26352L35.8947 6.47632C35.7532 6.63625 35.6519 6.72302 35.6215 6.75043C35.723 6.68274 35.8494 6.63591 35.8999 6.61998L37.5962 6.11524L37.743 5.94853L38.2896 6.42746L36.2329 8.76339L35.6866 8.2846L36.7568 7.06923C36.9007 6.90489 36.9983 6.81652 37.0407 6.78084C36.9613 6.83115 36.8286 6.8908 36.7638 6.91133L35.0682 7.4122L34.904 7.59964L34.3589 7.12085L36.4163 4.78495L36.962 5.26352Z" fill="#008270"/>
<path fill-rule="evenodd" clip-rule="evenodd" d="M40.8803 9.4667L40.4302 9.81994L39.9751 9.24251L37.9747 10.812L37.5266 10.2425L39.5264 8.67245L39.0706 8.09581L39.5211 7.74238L40.8803 9.4667Z" fill="#008270"/>
<path fill-rule="evenodd" clip-rule="evenodd" d="M42.0454 11.3162L41.0598 12.6254L41.0629 12.6335L42.6613 12.4526L42.9657 13.0149L40.5383 13.2462C40.1105 13.2863 39.9054 13.2786 39.7489 13.2294C39.469 13.1426 39.3221 12.9281 39.2343 12.7649C39.1798 12.665 39.1334 12.5511 39.1018 12.4239L39.6013 12.1549C39.6224 12.2411 39.6536 12.3379 39.6973 12.4171C39.7482 12.5133 39.8179 12.5939 39.901 12.6318C39.9827 12.6693 40.1061 12.676 40.1977 12.6627L41.6645 10.6143L42.0454 11.3162Z" fill="#008270"/>
<path fill-rule="evenodd" clip-rule="evenodd" d="M44.2047 16.3975L43.662 16.5795L43.4283 15.8829L41.0152 16.6876L40.7843 15.9999L43.1972 15.1945L42.9647 14.4981L43.5076 14.3173L44.2047 16.3975Z" fill="#008270"/>
<path fill-rule="evenodd" clip-rule="evenodd" d="M43.0178 22.1061V22.1152L45.0191 22.7256L45.0365 23.713L41.918 23.7666L41.9066 23.0682L44.3342 23.0271V23.0185L41.8947 22.3068L41.887 21.8359L44.2984 21.0244L44.3001 21.0151L41.8727 21.0559L41.8621 20.4849L44.9798 20.432L44.9972 21.4195L43.0178 22.1061Z" fill="#008270"/>
<path fill-rule="evenodd" clip-rule="evenodd" d="M42.3238 26.2297C42.1678 26.2843 42.003 26.403 41.9575 26.6199C41.9105 26.8373 42.0129 27.0115 42.1338 27.1248C42.2225 27.2092 42.4192 27.3529 42.8732 27.4487C43.3254 27.5448 43.5599 27.4888 43.6674 27.4506C43.8975 27.3656 43.9949 27.2231 44.0283 27.0593C44.0637 26.8955 44.0351 26.7262 43.8588 26.5542C43.7764 26.4775 43.5848 26.33 43.1315 26.2341C42.6774 26.138 42.439 26.1889 42.3238 26.2297ZM44.4394 26.2241C44.6385 26.5723 44.6148 26.9191 44.5627 27.1724C44.5091 27.4246 44.3886 27.7513 44.0625 27.9892C43.7602 28.2073 43.2881 28.3342 42.7009 28.2095C42.1859 28.1001 41.7811 27.8382 41.5723 27.4925C41.4442 27.285 41.3301 26.9497 41.4238 26.5066C41.5184 26.0632 41.7599 25.8039 41.9612 25.6663C42.2944 25.4351 42.7689 25.3601 43.2851 25.4695C43.8709 25.5942 44.2524 25.9021 44.4394 26.2241Z" fill="#008270"/>
<path fill-rule="evenodd" clip-rule="evenodd" d="M42.8363 30.0857C43.1496 30.2885 43.2496 30.6239 43.2692 30.8607C43.2896 31.1278 43.2252 31.3664 43.127 31.586C43.0347 31.7977 42.8816 32.0726 42.6236 32.2421C42.3216 32.4406 42.0529 32.3863 41.8871 32.3136C41.5746 32.1762 41.4118 31.8475 41.4881 31.5049L41.4806 31.5007C41.3905 31.6493 41.2536 31.7672 41.1204 31.823C40.9576 31.8857 40.7526 31.879 40.5647 31.797C40.2944 31.6781 40.1199 31.457 40.0562 31.2062C39.9693 30.8655 40.0878 30.5273 40.2074 30.2571C40.3188 30.005 40.4823 29.7147 40.7791 29.5484C40.8532 29.5061 41.1514 29.3599 41.5525 29.4514L41.4133 30.0796C41.3384 30.0711 41.1652 30.0597 41.0492 30.1073C40.9143 30.1624 40.7827 30.3027 40.7109 30.4682C40.6284 30.6557 40.6337 30.787 40.6601 30.873C40.6974 30.9824 40.7844 31.086 40.906 31.1394C41.063 31.2082 41.1817 31.1565 41.2361 31.121C41.365 31.0437 41.4186 30.9337 41.4677 30.8221L41.6395 30.4363L42.1218 30.6484L41.9515 31.03C41.9067 31.1336 41.8696 31.2857 41.8992 31.398C41.9241 31.4879 41.9985 31.5792 42.1186 31.6321C42.2548 31.6925 42.3594 31.6495 42.4238 31.6134C42.5229 31.5589 42.582 31.4698 42.6358 31.3501C42.7266 31.1468 42.7205 30.9667 42.6706 30.8349C42.6236 30.7156 42.5266 30.619 42.4759 30.5769L42.8363 30.0857Z" fill="#008270"/>
<path fill-rule="evenodd" clip-rule="evenodd" d="M40.4588 36.0566L39.9857 35.7342L40.7109 34.6749L38.6091 33.2423L39.0192 32.6437L41.5942 34.3984L40.4588 36.0566Z" fill="#008270"/>
<path fill-rule="evenodd" clip-rule="evenodd" d="M38.3734 37.36L37.784 36.3329L37.3146 36.8258L38.3734 37.36ZM35.632 36.7635L36.1536 36.2149L36.8384 36.563L37.4961 35.8721L37.1133 35.2087L37.531 34.7686L39.1168 37.6193L38.5749 38.1888L35.632 36.7635Z" fill="#008270"/>
<path fill-rule="evenodd" clip-rule="evenodd" d="M9.35594 45.4255C9.39522 45.4731 9.48844 45.5615 9.65012 45.5615C9.81267 45.5615 9.90555 45.4731 9.94517 45.4255C9.97561 45.392 10.0856 45.2453 10.0856 44.8957C10.0856 44.5464 9.97561 44.399 9.94517 44.3657C9.90555 44.3183 9.81267 44.2299 9.65012 44.2299C9.48844 44.2299 9.39522 44.3183 9.35594 44.3657C9.32564 44.399 9.21485 44.5464 9.21485 44.8957C9.21485 45.2453 9.32564 45.392 9.35594 45.4255ZM9.04122 44.149C9.17023 44.0277 9.36235 43.9212 9.65012 43.9212C9.93837 43.9212 10.13 44.0277 10.2586 44.149C10.4507 44.3295 10.5504 44.6088 10.5504 44.8957C10.5504 45.1827 10.4507 45.4623 10.2586 45.6426C10.13 45.7637 9.93837 45.8702 9.65012 45.8702C9.36235 45.8702 9.17023 45.7637 9.04122 45.6426C8.85003 45.4623 8.75054 45.1827 8.75054 44.8957C8.75054 44.6088 8.85003 44.3295 9.04122 44.149Z" fill="#906F3E"/>
<path fill-rule="evenodd" clip-rule="evenodd" d="M12.0581 44.6459C12.0505 44.5498 12.0135 44.4398 11.9665 44.3696C11.9227 44.3031 11.8337 44.2299 11.6868 44.2299C11.5428 44.2299 11.4467 44.3031 11.3868 44.4028C11.2956 44.5533 11.2874 44.7892 11.2874 44.8957C11.2874 45.0685 11.3145 45.2742 11.3868 45.392C11.4353 45.4658 11.5314 45.5615 11.6868 45.5615C11.7966 45.5615 11.8898 45.5172 11.9594 45.4217C12.0135 45.3444 12.0505 45.2341 12.0581 45.138L12.4492 45.1863C12.4275 45.3592 12.3502 45.5501 12.2133 45.6753C12.099 45.7789 11.9227 45.8702 11.6711 45.8702C11.3909 45.8702 11.2103 45.76 11.1033 45.6607C10.9587 45.5247 10.8233 45.2817 10.8233 44.8995C10.8233 44.5423 10.9448 44.3295 11.0402 44.2152C11.1776 44.0531 11.4099 43.9212 11.6823 43.9212C11.9151 43.9212 12.1062 44.0019 12.228 44.1269C12.3502 44.248 12.4234 44.4321 12.4492 44.5974L12.0581 44.6459Z" fill="#906F3E"/>
<path fill-rule="evenodd" clip-rule="evenodd" d="M13.2287 43.9579V44.6971H13.9432V43.9579H14.3711V45.834H13.9432V45.0134H13.2287V45.834H12.7996V43.9579H13.2287Z" fill="#906F3E"/>
<path fill-rule="evenodd" clip-rule="evenodd" d="M15.371 45.4255C15.4124 45.4731 15.5032 45.5615 15.6656 45.5615C15.8286 45.5615 15.9205 45.4731 15.9614 45.4255C15.9906 45.392 16.1011 45.2453 16.1011 44.8957C16.1011 44.5464 15.9906 44.399 15.9614 44.3657C15.9205 44.3183 15.8286 44.2299 15.6656 44.2299C15.5032 44.2299 15.4124 44.3183 15.371 44.3657C15.3404 44.399 15.2307 44.5464 15.2307 44.8957C15.2307 45.2453 15.3404 45.392 15.371 45.4255ZM15.0572 44.149C15.1861 44.0277 15.3784 43.9212 15.6656 43.9212C15.9535 43.9212 16.1456 44.0277 16.2737 44.149C16.4672 44.3295 16.5655 44.6088 16.5655 44.8957C16.5655 45.1827 16.4672 45.4623 16.2737 45.6426C16.1458 45.7637 15.9535 45.8702 15.6656 45.8702C15.3784 45.8702 15.1861 45.7637 15.0572 45.6426C14.8651 45.4623 14.7653 45.1827 14.7653 44.8957C14.7653 44.6088 14.8649 44.3295 15.0572 44.149Z" fill="#906F3E"/>
<path fill-rule="evenodd" clip-rule="evenodd" d="M17.3878 45.5615H17.8453C17.9185 45.5615 18.0229 45.5539 18.0961 45.4844C18.1444 45.4398 18.1774 45.3668 18.1774 45.278C18.1774 45.1786 18.1326 45.1125 18.0745 45.0684C17.9994 45.0134 17.9086 45.002 17.8302 45.002H17.3878V45.5615ZM17.3878 44.7299H17.7788C17.8673 44.7299 17.9486 44.7264 18.0229 44.6525C18.0557 44.6199 18.0961 44.5613 18.0961 44.4693C18.0961 44.3916 18.0745 44.3333 18.0154 44.285C17.9416 44.226 17.864 44.2299 17.7967 44.2299H17.3878V44.7299ZM17.9009 43.9579C18.0557 43.9579 18.2257 43.9687 18.3505 44.0495C18.4468 44.1122 18.5395 44.2185 18.5395 44.4103C18.5395 44.5498 18.4868 44.6459 18.421 44.7114C18.3578 44.774 18.273 44.8183 18.1739 44.8329V44.8406C18.2996 44.851 18.4321 44.9024 18.5127 44.9806C18.5797 45.0428 18.6421 45.1455 18.6421 45.3039C18.6421 45.5395 18.5206 45.6649 18.4468 45.7197C18.2958 45.8301 18.1178 45.834 17.9627 45.834H16.9606V43.9579H17.9009Z" fill="#906F3E"/>
<path fill-rule="evenodd" clip-rule="evenodd" d="M20.0585 44.925C19.9697 44.925 19.793 44.9359 19.6778 44.9766C19.4614 45.0502 19.4276 45.2087 19.4276 45.3003C19.4276 45.392 19.4758 45.4475 19.5053 45.4731C19.5712 45.5359 19.6755 45.5615 19.7635 45.5615C19.9071 45.5615 20.051 45.4912 20.1323 45.3887C20.2096 45.2935 20.2539 45.1351 20.2539 45.0172V44.9217L20.0585 44.925ZM19.0221 44.4541C19.0816 44.2079 19.2405 44.0793 19.3542 44.02C19.4433 43.9724 19.6018 43.9212 19.8925 43.9212C20.1251 43.9212 20.3204 43.958 20.4533 44.0531C20.6634 44.2041 20.6819 44.4356 20.6819 44.6382V45.4323C20.6819 45.5576 20.7035 45.7198 20.7219 45.834H20.2953C20.2795 45.7566 20.2611 45.6499 20.2539 45.5139C20.0835 45.8373 19.782 45.8702 19.6268 45.8702C19.1326 45.8702 18.9634 45.5615 18.9634 45.304C18.9634 45.131 19.033 44.925 19.2922 44.7965C19.5133 44.6823 19.8668 44.6602 20.0439 44.6563L20.2539 44.6525V44.5899C20.2539 44.5533 20.2505 44.4065 20.1881 44.3255C20.1094 44.2261 19.9697 44.2152 19.8668 44.2152C19.7297 44.2152 19.6449 44.2374 19.5871 44.2707C19.5163 44.3108 19.4458 44.3884 19.424 44.5057L19.0221 44.4541Z" fill="#906F3E"/>
<path fill-rule="evenodd" clip-rule="evenodd" d="M21.6113 43.9579V44.6971H22.3264V43.9579H22.7548V45.834H22.3264V45.0134H21.6113V45.834H21.1828V43.9579H21.6113Z" fill="#906F3E"/>
<path fill-rule="evenodd" clip-rule="evenodd" d="M24.5586 45.5615H25.0148C25.0891 45.5615 25.1921 45.5539 25.2662 45.4844C25.3149 45.4398 25.3479 45.3668 25.3479 45.278C25.3481 45.1786 25.3035 45.1125 25.2436 45.0684C25.1708 45.0134 25.0778 45.002 25.0005 45.002H24.5586V45.5615ZM24.5586 44.7299H24.9498C25.0383 44.7299 25.1187 44.7264 25.1921 44.6525C25.2262 44.6199 25.2662 44.5613 25.2662 44.4693C25.2662 44.3916 25.2436 44.3333 25.1853 44.285C25.1103 44.226 25.0347 44.2299 24.968 44.2299H24.5586V44.7299ZM25.071 43.9579C25.2262 43.9579 25.395 43.9687 25.5206 44.0495C25.6167 44.1122 25.7085 44.2185 25.7085 44.4103C25.7085 44.5498 25.6574 44.6459 25.5903 44.7114C25.5283 44.774 25.4433 44.8183 25.3442 44.8329V44.8406C25.4683 44.851 25.6017 44.9024 25.6833 44.9806C25.7492 45.0428 25.812 45.1455 25.812 45.3039C25.812 45.5395 25.6901 45.6649 25.6167 45.7197C25.466 45.8301 25.2882 45.834 25.133 45.834H24.1301V43.9579H25.071Z" fill="#906F3E"/>
<path fill-rule="evenodd" clip-rule="evenodd" d="M27.0668 44.0608C27.1016 43.8326 27.2062 43.6819 27.25 43.6228C27.4051 43.4208 27.649 43.2735 28.0092 43.2735C28.2568 43.2735 28.4641 43.3324 28.6269 43.4607C28.8667 43.6485 28.9054 43.8988 28.9054 44.0494C28.9054 44.414 28.648 44.6934 28.427 44.8623L27.6556 45.4509H28.9137L28.9016 45.834H27.0668V45.4701L28.0358 44.7152C28.2643 44.5348 28.4491 44.3219 28.4491 44.0639C28.4491 43.9135 28.3823 43.8178 28.3006 43.7519C28.2015 43.6671 28.0872 43.6411 27.9804 43.6411C27.8002 43.6411 27.6512 43.7368 27.5671 43.866C27.5119 43.9502 27.4833 44.0639 27.475 44.1603L27.0668 44.0608Z" fill="#906F3E"/>
<path fill-rule="evenodd" clip-rule="evenodd" d="M29.8326 45.1938C29.9236 45.4398 30.0976 45.5246 30.2634 45.5246C30.4291 45.5246 30.6033 45.4398 30.6948 45.1938C30.7659 45.002 30.7765 44.7299 30.7765 44.5723C30.7765 44.414 30.7659 44.1411 30.6948 43.9502C30.6033 43.7037 30.4291 43.6192 30.2634 43.6192C30.0976 43.6192 29.9236 43.7037 29.8326 43.9502C29.763 44.1411 29.7509 44.414 29.7509 44.5723C29.7509 44.7299 29.763 45.002 29.8326 45.1938ZM29.5367 43.6561C29.7024 43.4096 29.9236 43.2735 30.2634 43.2735C30.6033 43.2735 30.8242 43.4096 30.9899 43.6561C31.1677 43.9134 31.2346 44.2447 31.2346 44.5723C31.2346 44.8995 31.1677 45.2304 30.9899 45.4882C30.8242 45.7342 30.6033 45.8702 30.2634 45.8702C29.9236 45.8702 29.7024 45.7342 29.5367 45.4882C29.3602 45.2304 29.2945 44.8995 29.2945 44.5723C29.2945 44.2447 29.3602 43.9134 29.5367 43.6561Z" fill="#906F3E"/>
<path fill-rule="evenodd" clip-rule="evenodd" d="M32.1041 45.1938C32.1957 45.4398 32.3696 45.5246 32.5354 45.5246C32.7015 45.5246 32.8747 45.4398 32.967 45.1938C33.0374 45.002 33.0487 44.7299 33.0487 44.5723C33.0488 44.414 33.0374 44.1411 32.967 43.9502C32.8747 43.7037 32.7013 43.6192 32.5354 43.6192C32.3696 43.6192 32.1957 43.7037 32.104 43.9502C32.0337 44.1411 32.0223 44.414 32.0223 44.5723C32.0223 44.7299 32.0337 45.002 32.1041 45.1938ZM31.8087 43.6561C31.9746 43.4096 32.1957 43.2735 32.5354 43.2735C32.8747 43.2735 33.0956 43.4096 33.2622 43.6561C33.44 43.9134 33.505 44.2447 33.505 44.5723C33.505 44.8995 33.44 45.2304 33.2622 45.4882C33.0956 45.7342 32.8747 45.8702 32.5354 45.8702C32.1957 45.8702 31.9746 45.7342 31.8087 45.4882C31.6325 45.2304 31.5652 44.8995 31.5652 44.5723C31.5652 44.2447 31.6325 43.9134 31.8087 43.6561Z" fill="#906F3E"/>
<path fill-rule="evenodd" clip-rule="evenodd" d="M34.9766 43.6964L34.1992 44.9024H34.9766V43.6964ZM35.4353 44.9024H35.829V45.2557H35.4353V45.834H34.9766V45.2557H33.8003V44.936L34.8879 43.2995H35.4353V44.9024Z" fill="#906F3E"/>
<path fill-rule="evenodd" clip-rule="evenodd" d="M38.3334 43.9579V44.2744H37.4887V45.834H37.061V43.9579H38.3334Z" fill="#906F3E"/>
<path fill-rule="evenodd" clip-rule="evenodd" d="M38.9819 45.3332V45.834H38.4809V45.3332H38.9819Z" fill="#906F3E"/>
<path d="M69.8634 13.2209L73.3524 7.44149H76.6438L72.209 13.7321L76.9001 21.2019H73.4704L69.8634 14.4791H69.7843V21.2019H66.9066V7.44149H69.7843V13.2209H69.8634ZM76.368 21.1822V18.5089L76.9399 18.5675C77.8202 18.5675 78.4116 18.0174 78.7135 16.9164C78.8582 16.3397 78.9306 15.37 78.9306 14.0073L79.0097 7.44149H87.4656V21.2019H84.5879V10.1149H81.749L81.6704 14.9114C81.6704 16.6282 81.4733 17.9715 81.0795 18.9412C80.4483 20.514 79.2923 21.3004 77.61 21.3004C77.255 21.3004 76.8409 21.2611 76.368 21.1822ZM92.7874 16.2155L96.9168 7.44464L99.7848 7.44149V21.2019H96.9076V12.3558L92.7874 21.2019H89.9097V7.44149H92.7874V16.2155ZM105.107 15.2847V21.2019H102.229V7.44149H105.107V12.6113H108.832V7.44149H111.71V21.2019H108.832V15.2847H105.107ZM117.033 16.2155L121.162 7.44464L124.03 7.44149V21.2019H121.152V12.3558L117.033 21.2019H114.154V7.44149H117.033V16.2155ZM125.941 7.44149H128.82V10.7635C128.82 11.6415 128.961 12.2477 129.243 12.582C129.526 12.916 129.989 13.0831 130.633 13.0831C131.224 13.0831 131.776 13.0372 132.289 12.9457V7.44149H135.166V21.2019H132.289V15.6191L131.106 15.7175H129.943C128.616 15.7175 127.644 15.4619 127.026 14.9538C126.303 14.3413 125.941 13.2341 125.941 11.6286V7.44149ZM140.489 12.9063H145.89V15.4423H140.489V18.5285H146.757V21.2019H137.61V7.44149H146.599V10.1149H140.489V12.9063ZM155.311 16.3464H158.169C158.012 18.1025 157.519 19.4165 156.691 20.2878C155.863 21.1595 154.635 21.5948 153.005 21.5948C151.244 21.5948 149.897 21.0645 148.964 20.0029C147.966 18.8232 147.466 17.0149 147.466 14.577C147.466 12.4805 147.815 10.8028 148.511 9.54466C149.43 7.88038 150.902 7.04822 152.926 7.04822C154.936 7.04822 156.376 7.73613 157.243 9.11236C157.768 9.97745 158.032 10.98 158.032 12.1199H155.213C155.134 11.2289 154.891 10.5865 154.483 10.1936C154.168 9.87901 153.689 9.72179 153.045 9.72179C152.4 9.72179 151.875 9.96428 151.468 10.4491C150.85 11.2093 150.541 12.5458 150.541 14.4593C150.541 16.2155 150.856 17.4605 151.487 18.1944C151.908 18.6791 152.453 18.9216 153.123 18.9216C153.754 18.9216 154.247 18.7348 154.602 18.3615C154.956 17.9877 155.193 17.3161 155.311 16.3464ZM162.565 13.2209L166.054 7.44149H169.346L164.911 13.7321L169.602 21.2019H166.172L162.565 14.4791H162.486V21.2019H159.609V7.44149H162.486V13.2209H162.565ZM173.17 16.2155L177.3 7.44464L180.168 7.44149V21.2019H177.29V12.3558L173.17 21.2019H170.292V7.44149H173.17V16.2155ZM185.489 16.2155L189.619 7.44464L192.487 7.44149V21.2019H189.609V12.3558L185.489 21.2019H182.612V7.44149H185.489V16.2155ZM184.287 4.06023H186.317C186.317 4.388 186.389 4.66324 186.534 4.88597C186.744 5.21335 187.079 5.37735 187.539 5.37735C187.986 5.37735 188.321 5.21979 188.545 4.90554C188.702 4.66984 188.781 4.388 188.781 4.06023H190.811C190.733 4.93846 190.411 5.60977 189.845 6.07534C189.28 6.54057 188.512 6.77299 187.539 6.77299C186.554 6.77299 185.765 6.52735 185.174 6.03597C184.583 5.5444 184.287 4.88597 184.287 4.06023ZM69.7843 37.7607L73.9141 28.9899L76.7816 28.9867V42.7472H73.9044V33.9011L69.7843 42.7472H66.9066V28.9867H69.7843V37.7607ZM82.104 36.83V42.7472H79.2258V28.9867H82.104V34.1567H85.8289V28.9867H88.7071V42.7472H85.8289V36.83H82.104ZM98.3462 37.8916H101.204C101.046 39.6477 100.553 40.9617 99.7255 41.833C98.8982 42.7047 97.6693 43.1403 96.0399 43.1403C94.2789 43.1403 92.9321 42.6097 91.9989 41.5481C91.0002 40.3684 90.5011 38.5603 90.5011 36.1224C90.5011 34.0257 90.8492 32.3481 91.5454 31.0899C92.4655 29.4258 93.9371 28.5935 95.9608 28.5935C97.9713 28.5935 99.4104 29.2814 100.278 30.6576C100.803 31.5227 101.066 32.5252 101.066 33.6652H98.2471C98.1689 32.7743 97.9257 32.1319 97.5179 31.7388C97.2028 31.4242 96.7231 31.2672 96.0793 31.2672C95.435 31.2672 94.9096 31.5095 94.5023 31.9945C93.8847 32.7545 93.5759 34.091 93.5759 36.0046C93.5759 37.7607 93.891 39.0058 94.5217 39.7396C94.9422 40.2244 95.4879 40.4669 96.1584 40.4669C96.7886 40.4669 97.2814 40.28 97.6363 39.9067C97.9912 39.533 98.2277 38.8613 98.3462 37.8916ZM104.772 31.6602H101.421V28.9867H110.961V31.6602H107.65V42.7472H104.772V31.6602ZM115.002 37.7607L119.131 28.9899L121.999 28.9867V42.7472H119.122V33.9011L115.002 42.7472H112.124V28.9867H115.002V37.7607ZM126.573 31.6602H123.221V28.9867H132.762V31.6602H129.45V42.7472H126.573V31.6602ZM138.162 35.69L139.956 28.9867H143.031L139.443 39.936C139.023 41.2073 138.478 42.0724 137.808 42.531C137.348 42.8456 136.703 43.0028 135.876 43.0028C135.574 43.0028 135.281 42.9831 134.999 42.9437C134.716 42.9044 134.41 42.8324 134.082 42.7276V39.9951L134.614 40.1917L135.344 40.2703C135.817 40.2703 136.178 40.0215 136.428 39.5235C136.506 39.3401 136.566 39.1432 136.605 38.9335L132.525 28.9867H135.896L138.162 35.69ZM145.85 31.6602H142.499V28.9867H152.039V31.6602H148.728V42.7472H145.85V31.6602ZM165.541 42.7472L163.058 33.9011L162.998 42.7472H160.121V28.9867H164.043L166.547 37.9703L169.05 28.9867H172.972V42.7472H170.094V33.9011L167.568 42.7472H165.541ZM180.482 43.1403C178.918 43.1403 177.65 42.6685 176.678 41.7249C175.929 40.978 175.396 39.9623 175.081 38.678C174.976 38.2194 174.897 37.777 174.845 37.3512C174.792 36.9253 174.766 36.4305 174.766 35.8668C174.766 34.8445 174.871 33.9143 175.081 33.0754C175.396 31.7782 175.922 30.7627 176.658 30.0284C177.618 29.0717 178.892 28.5935 180.482 28.5935C182.584 28.5935 184.122 29.3994 185.095 31.0116C185.83 32.2434 186.199 33.8618 186.199 35.8668C186.199 37.885 185.837 39.4972 185.114 40.7028C184.155 42.3279 182.611 43.1403 180.482 43.1403ZM180.482 40.4669C181.231 40.4669 181.816 40.2178 182.236 39.7198C182.828 38.986 183.123 37.7016 183.123 35.8668C183.123 34.0193 182.821 32.735 182.216 32.0141C181.796 31.5161 181.218 31.2672 180.482 31.2672C179.733 31.2672 179.155 31.5095 178.747 31.9945C178.156 32.702 177.861 33.9929 177.861 35.8668C177.861 37.7148 178.15 38.9925 178.728 39.7003C179.122 40.2112 179.707 40.4669 180.482 40.4669ZM187.184 38.0098H189.983C189.983 38.9007 190.183 39.533 190.584 39.9067C190.985 40.28 191.606 40.4669 192.447 40.4669C193.209 40.4669 193.767 40.2901 194.122 39.936C194.411 39.6477 194.556 39.2219 194.556 38.6582C194.556 37.99 194.352 37.5183 193.945 37.243C193.866 37.1905 193.761 37.1446 193.63 37.1052C193.393 37.0269 193.117 36.9875 192.801 36.9875H191.086V34.4516H192.526C192.959 34.4516 193.294 34.3925 193.531 34.2748C193.978 34.0257 194.201 33.5733 194.201 32.9183C194.201 32.25 193.971 31.7844 193.511 31.5227C193.196 31.3521 192.795 31.2672 192.309 31.2672C191.691 31.2672 191.251 31.3587 190.988 31.5419C190.541 31.8697 190.318 32.5056 190.318 33.4491H187.499C187.499 31.7192 187.897 30.4774 188.692 29.7237C189.487 28.9703 190.751 28.5935 192.486 28.5935C194.299 28.5935 195.613 29.0455 196.428 29.9499C196.994 30.5919 197.276 31.4308 197.276 32.4661C197.276 33.1213 197.164 33.6522 196.941 34.0583C196.586 34.74 195.936 35.2118 194.99 35.4739V35.5526C195.949 35.8274 196.629 36.2238 197.03 36.7416C197.43 37.2593 197.631 38.0162 197.631 39.0124C197.631 40.6896 196.967 41.8629 195.64 42.531C194.786 42.9371 193.695 43.1403 192.368 43.1403C190.935 43.1403 189.805 42.8522 188.977 42.2755C187.782 41.4366 187.184 40.0149 187.184 38.0098ZM202.401 31.6602V42.7472H199.523V28.9867H207.171V31.6602H202.401ZM210.817 28.9867H213.715L217.854 42.7472H214.839L214.129 40.1719H210.384L209.694 42.7472H206.678L210.817 28.9867ZM210.956 37.8328H213.557L212.256 32.6824L210.956 37.8328Z" fill="#008270"/>
</g>
<defs>
<clipPath id="clip0_164_129">
<rect width="218" height="46" fill="white"/>
</clipPath>
</defs>
</svg>
