<svg width="112" height="22" viewBox="0 0 112 22" fill="none" xmlns="http://www.w3.org/2000/svg">
<path d="M23.3488 20.5333L26.8126 0.305555H31.4311L27.7427 21.6944H18.9228L15.6514 1.68056L12.3479 21.6944H3.68834L0 0.305555H4.58637L8.08228 20.4722L11.4178 0.305555H20.0133L23.3488 20.5333Z" fill="#121214"/>
<path d="M46.3273 10.9083C48.1019 11.112 49.4917 11.6824 50.4967 12.6194C51.523 13.5565 52.0362 14.7278 52.0362 16.1333C52.0362 17.7222 51.4054 19.0463 50.1439 20.1056C48.9037 21.1648 47.2787 21.6944 45.2689 21.6944H34.5246V0.305555H44.3067C46.3166 0.305555 47.9416 0.84537 49.1817 1.925C50.4432 3.00463 51.074 4.33889 51.074 5.92778C51.074 7.21111 50.657 8.29074 49.8232 9.16667C48.9893 10.0426 47.824 10.6231 46.3273 10.9083ZM43.8577 4.06389H38.9826V9.19722H43.8577C44.7557 9.19722 45.472 8.95278 46.0065 8.46389C46.5625 7.975 46.8404 7.3537 46.8404 6.6C46.8404 5.8463 46.5625 5.23519 46.0065 4.76667C45.472 4.29815 44.7557 4.06389 43.8577 4.06389ZM38.9826 17.9361H44.467C45.3651 17.9361 46.0814 17.7019 46.6159 17.2333C47.1505 16.7444 47.4177 16.1231 47.4177 15.3694C47.4177 14.6157 47.1505 14.0046 46.6159 13.5361C46.0814 13.0472 45.3651 12.8028 44.467 12.8028H38.9826V17.9361Z" fill="#121214"/>
<path d="M54.7495 16.0417L59.4001 15.1556C59.5711 16.1333 60.0201 16.8972 60.7471 17.4472C61.4955 17.9769 62.479 18.2417 63.6978 18.2417C64.7882 18.2417 65.6756 18.0074 66.3598 17.5389C67.0654 17.05 67.4182 16.4491 67.4182 15.7361C67.4182 15.1861 67.1937 14.7278 66.7447 14.3611C66.2957 13.9741 65.7077 13.6685 64.9807 13.4444C64.2751 13.2204 63.4947 13.0065 62.6394 12.8028C61.7841 12.5991 60.9182 12.3444 60.0415 12.0389C59.1862 11.7333 58.3951 11.3667 57.6681 10.9389C56.9626 10.5111 56.3852 9.91018 55.9362 9.13611C55.4872 8.34167 55.2627 7.40463 55.2627 6.325C55.2627 4.53241 56.0538 3.03519 57.6361 1.83333C59.2397 0.611111 61.1961 0 63.5053 0C65.836 0 67.7603 0.55 69.2784 1.65C70.7965 2.75 71.6945 4.18611 71.9725 5.95833L67.322 6.84444C67.1509 5.90741 66.7126 5.16389 66.007 4.61389C65.3228 4.04352 64.4354 3.75833 63.345 3.75833C62.3614 3.75833 61.5596 3.98241 60.9395 4.43056C60.3195 4.85833 60.0094 5.40833 60.0094 6.08055C60.0094 6.61019 60.2339 7.05833 60.683 7.425C61.132 7.7713 61.7093 8.05648 62.4149 8.28056C63.1419 8.48426 63.933 8.68796 64.7882 8.89167C65.6435 9.09537 66.4988 9.36019 67.354 9.68611C68.2307 9.99167 69.0218 10.3685 69.7274 10.8167C70.4544 11.2648 71.0424 11.8963 71.4914 12.7111C71.9404 13.5259 72.1649 14.4935 72.1649 15.6139C72.1649 17.4269 71.331 18.9444 69.6633 20.1667C68.0169 21.3889 65.9856 22 63.5695 22C61.1534 22 59.1542 21.4602 57.5719 20.3806C55.9897 19.3009 55.0489 17.8546 54.7495 16.0417Z" fill="#121214"/>
<path d="M84.8732 21.6944H80.2868V4.18611H73.4233V0.305555H91.7688V4.18611H84.8732V21.6944Z" fill="#121214"/>
<path d="M106.419 13.6583L112 21.6944H106.548L101.288 14.0861H98.4013V21.6944H93.8149V0.305555H103.469C105.842 0.305555 107.756 0.957407 109.21 2.26111C110.664 3.54444 111.391 5.18426 111.391 7.18056C111.391 8.70833 110.942 10.0528 110.044 11.2139C109.167 12.375 107.959 13.1898 106.419 13.6583ZM103.469 4.18611H98.4013V10.0833H103.469C104.431 10.0833 105.201 9.80833 105.778 9.25833C106.377 8.70833 106.676 8.00556 106.676 7.15C106.676 6.29445 106.377 5.59167 105.778 5.04167C105.201 4.4713 104.431 4.18611 103.469 4.18611Z" fill="#121214"/>
</svg>
